<mxfile host="app.diagrams.net" agent="Mozilla/5.0 (Windows NT 10.0; Win64; x64) AppleWebKit/537.36 (KHTML, like Gecko) Chrome/134.0.0.0 Safari/537.36" version="26.1.0">
  <diagram name="Page-1" id="97916047-d0de-89f5-080d-49f4d83e522f">
    <mxGraphModel dx="1793" dy="995" grid="1" gridSize="10" guides="1" tooltips="1" connect="1" arrows="1" fold="1" page="1" pageScale="1.5" pageWidth="1169" pageHeight="827" background="none" math="0" shadow="0">
      <root>
        <mxCell id="0" />
        <mxCell id="1" parent="0" />
        <mxCell id="ALkeQY71KJQ5JkwHYAfo-72" value="" style="edgeStyle=elbowEdgeStyle;elbow=vertical;strokeWidth=4;endArrow=block;endFill=1;fontStyle=1;dashed=1;strokeColor=#23445D;entryX=0.5;entryY=0;entryDx=0;entryDy=0;exitX=0.75;exitY=1;exitDx=0;exitDy=0;sourcePerimeterSpacing=0;" parent="1" source="ALkeQY71KJQ5JkwHYAfo-64" target="ALkeQY71KJQ5JkwHYAfo-69" edge="1">
          <mxGeometry x="22" y="165.5" width="100" height="100" as="geometry">
            <mxPoint x="632" y="510" as="sourcePoint" />
            <mxPoint x="1091" y="735" as="targetPoint" />
            <Array as="points">
              <mxPoint x="810" y="480" />
            </Array>
          </mxGeometry>
        </mxCell>
        <mxCell id="igplpGSqUlNDnvpUY9Ta-18" style="edgeStyle=none;curved=1;rounded=0;orthogonalLoop=1;jettySize=auto;html=1;exitX=0;exitY=0.5;exitDx=0;exitDy=0;entryX=1;entryY=0.5;entryDx=0;entryDy=0;fontSize=12;startSize=8;endSize=8;strokeWidth=4;strokeColor=#333333;" edge="1" parent="1" source="ALkeQY71KJQ5JkwHYAfo-64" target="igplpGSqUlNDnvpUY9Ta-17">
          <mxGeometry relative="1" as="geometry" />
        </mxCell>
        <mxCell id="ALkeQY71KJQ5JkwHYAfo-64" value="principal page" style="rounded=1;fillColor=light-dark(#FFFF88,#203A00);strokeColor=#36393d;shadow=1;fontStyle=1;fontSize=14;" parent="1" vertex="1">
          <mxGeometry x="482" y="360" width="200" height="60" as="geometry" />
        </mxCell>
        <mxCell id="ALkeQY71KJQ5JkwHYAfo-65" style="edgeStyle=orthogonalEdgeStyle;rounded=1;orthogonalLoop=1;jettySize=auto;html=1;exitX=0.5;exitY=1;exitDx=0;exitDy=0;entryX=0;entryY=0.5;entryDx=0;entryDy=0;strokeColor=#23445d;strokeWidth=4;curved=0;" parent="1" source="ALkeQY71KJQ5JkwHYAfo-66" target="ALkeQY71KJQ5JkwHYAfo-67" edge="1">
          <mxGeometry relative="1" as="geometry" />
        </mxCell>
        <mxCell id="ALkeQY71KJQ5JkwHYAfo-66" value="Seccion genero" style="rounded=1;fillColor=#ffff88;strokeColor=#36393d;shadow=1;fontStyle=1;fontSize=14;" parent="1" vertex="1">
          <mxGeometry x="200" y="841.5" width="200" height="60" as="geometry" />
        </mxCell>
        <mxCell id="ALkeQY71KJQ5JkwHYAfo-67" value="Pagina pelicula" style="rounded=1;fillColor=#FFC551;strokeColor=#b85450;shadow=1;fontStyle=1;fontSize=14;" parent="1" vertex="1">
          <mxGeometry x="482" y="940" width="200" height="60" as="geometry" />
        </mxCell>
        <mxCell id="ALkeQY71KJQ5JkwHYAfo-68" value="" style="edgeStyle=orthogonalEdgeStyle;rounded=1;orthogonalLoop=1;jettySize=auto;html=1;strokeWidth=4;dashed=1;strokeColor=#333333;curved=0;" parent="1" source="ALkeQY71KJQ5JkwHYAfo-69" target="ALkeQY71KJQ5JkwHYAfo-73" edge="1">
          <mxGeometry relative="1" as="geometry" />
        </mxCell>
        <mxCell id="ALkeQY71KJQ5JkwHYAfo-69" value="Ventana modal&#xa;Login / Boton registro" style="rounded=1;fillColor=#6BFF7E;strokeColor=#36393d;shadow=1;fontStyle=1;fontSize=14;" parent="1" vertex="1">
          <mxGeometry x="885" y="567.5" width="200" height="60" as="geometry" />
        </mxCell>
        <mxCell id="ALkeQY71KJQ5JkwHYAfo-70" value="" style="edgeStyle=elbowEdgeStyle;elbow=vertical;strokeWidth=4;endArrow=block;endFill=1;fontStyle=1;strokeColor=#23445D;entryX=0.5;entryY=0;entryDx=0;entryDy=0;exitX=0.5;exitY=1;exitDx=0;exitDy=0;" parent="1" target="ALkeQY71KJQ5JkwHYAfo-66" edge="1">
          <mxGeometry x="22" y="165.5" width="100" height="100" as="geometry">
            <mxPoint x="582" y="600" as="sourcePoint" />
            <mxPoint x="131" y="824.5" as="targetPoint" />
            <Array as="points">
              <mxPoint x="440" y="760" />
            </Array>
          </mxGeometry>
        </mxCell>
        <mxCell id="ALkeQY71KJQ5JkwHYAfo-71" value="" style="edgeStyle=elbowEdgeStyle;elbow=vertical;strokeWidth=4;endArrow=block;endFill=1;fontStyle=1;strokeColor=#23445D;entryX=0.5;entryY=0;entryDx=0;entryDy=0;exitX=0.5;exitY=1;exitDx=0;exitDy=0;" parent="1" source="ALkeQY71KJQ5JkwHYAfo-64" target="ALkeQY71KJQ5JkwHYAfo-67" edge="1">
          <mxGeometry width="100" height="100" as="geometry">
            <mxPoint x="582" y="600" as="sourcePoint" />
            <mxPoint x="571" y="824.5" as="targetPoint" />
            <Array as="points">
              <mxPoint x="561" y="769" />
            </Array>
            <mxPoint x="48" as="offset" />
          </mxGeometry>
        </mxCell>
        <mxCell id="ALkeQY71KJQ5JkwHYAfo-79" style="edgeStyle=orthogonalEdgeStyle;rounded=1;orthogonalLoop=1;jettySize=auto;html=1;exitX=1;exitY=0.5;exitDx=0;exitDy=0;entryX=1;entryY=0.5;entryDx=0;entryDy=0;strokeWidth=4;strokeColor=#333333;curved=0;" parent="1" source="ALkeQY71KJQ5JkwHYAfo-73" target="ALkeQY71KJQ5JkwHYAfo-64" edge="1">
          <mxGeometry relative="1" as="geometry">
            <Array as="points">
              <mxPoint x="1320" y="820" />
              <mxPoint x="1320" y="390" />
            </Array>
          </mxGeometry>
        </mxCell>
        <mxCell id="ALkeQY71KJQ5JkwHYAfo-73" value="Login" style="rounded=1;fillColor=#66E0FF;strokeColor=#0e8088;shadow=1;fontStyle=1;fontSize=14;" parent="1" vertex="1">
          <mxGeometry x="1042" y="790" width="200" height="60" as="geometry" />
        </mxCell>
        <mxCell id="igplpGSqUlNDnvpUY9Ta-8" style="edgeStyle=none;curved=1;rounded=0;orthogonalLoop=1;jettySize=auto;html=1;exitX=0.5;exitY=1;exitDx=0;exitDy=0;fontSize=12;startSize=8;endSize=8;strokeWidth=4;endArrow=block;startFill=0;endFill=1;strokeColor=#333333;" edge="1" parent="1" source="ALkeQY71KJQ5JkwHYAfo-76">
          <mxGeometry relative="1" as="geometry">
            <mxPoint x="823.6315789473683" y="941" as="targetPoint" />
          </mxGeometry>
        </mxCell>
        <mxCell id="ALkeQY71KJQ5JkwHYAfo-76" value="Formulario registro&#xa;de nuevo usuario" style="rounded=1;fillColor=#66E0FF;strokeColor=#0e8088;shadow=1;fontStyle=1;fontSize=14;" parent="1" vertex="1">
          <mxGeometry x="724" y="790" width="200" height="60" as="geometry" />
        </mxCell>
        <mxCell id="ALkeQY71KJQ5JkwHYAfo-78" value="" style="edgeStyle=orthogonalEdgeStyle;rounded=1;orthogonalLoop=1;jettySize=auto;html=1;strokeWidth=4;dashed=1;strokeColor=#333333;exitX=0.5;exitY=1;exitDx=0;exitDy=0;curved=0;" parent="1" source="ALkeQY71KJQ5JkwHYAfo-69" edge="1">
          <mxGeometry relative="1" as="geometry">
            <mxPoint x="654" y="670.5" as="sourcePoint" />
            <mxPoint x="825" y="790.5" as="targetPoint" />
          </mxGeometry>
        </mxCell>
        <mxCell id="igplpGSqUlNDnvpUY9Ta-3" style="edgeStyle=none;curved=1;rounded=0;orthogonalLoop=1;jettySize=auto;html=1;exitX=0.5;exitY=1;exitDx=0;exitDy=0;entryX=0.5;entryY=0;entryDx=0;entryDy=0;fontSize=12;startSize=8;endSize=8;strokeWidth=4;" edge="1" parent="1" source="igplpGSqUlNDnvpUY9Ta-1" target="ALkeQY71KJQ5JkwHYAfo-64">
          <mxGeometry relative="1" as="geometry" />
        </mxCell>
        <mxCell id="igplpGSqUlNDnvpUY9Ta-1" value="Landing page / Index" style="rounded=1;fillColor=#cdeb8b;strokeColor=#36393d;shadow=1;fontStyle=1;fontSize=14;" vertex="1" parent="1">
          <mxGeometry x="482" y="180" width="200" height="60" as="geometry" />
        </mxCell>
        <mxCell id="igplpGSqUlNDnvpUY9Ta-16" style="edgeStyle=orthogonalEdgeStyle;rounded=1;orthogonalLoop=1;jettySize=auto;html=1;exitX=1;exitY=0.5;exitDx=0;exitDy=0;fontSize=12;startSize=8;endSize=8;curved=0;strokeWidth=4;endArrow=none;startFill=0;strokeColor=#333333;" edge="1" parent="1" source="igplpGSqUlNDnvpUY9Ta-4">
          <mxGeometry relative="1" as="geometry">
            <mxPoint x="1320" y="711" as="targetPoint" />
          </mxGeometry>
        </mxCell>
        <mxCell id="igplpGSqUlNDnvpUY9Ta-4" value="Formulario exitoso" style="rounded=1;fillColor=#66E0FF;strokeColor=#0e8088;shadow=1;fontStyle=1;fontSize=14;" vertex="1" parent="1">
          <mxGeometry x="724" y="941" width="200" height="60" as="geometry" />
        </mxCell>
        <mxCell id="igplpGSqUlNDnvpUY9Ta-17" value="Formulario registro&#xa;de nuevo pelicula" style="rounded=1;fillColor=#66E0FF;strokeColor=#0e8088;shadow=1;fontStyle=1;fontSize=14;" vertex="1" parent="1">
          <mxGeometry x="160" y="360" width="200" height="60" as="geometry" />
        </mxCell>
        <mxCell id="igplpGSqUlNDnvpUY9Ta-24" style="edgeStyle=orthogonalEdgeStyle;rounded=1;orthogonalLoop=1;jettySize=auto;html=1;exitX=1;exitY=0.5;exitDx=0;exitDy=0;entryX=0.25;entryY=1;entryDx=0;entryDy=0;fontSize=12;startSize=8;endSize=8;curved=0;strokeWidth=4;strokeColor=#333333;" edge="1" parent="1" source="igplpGSqUlNDnvpUY9Ta-19" target="ALkeQY71KJQ5JkwHYAfo-64">
          <mxGeometry relative="1" as="geometry" />
        </mxCell>
        <mxCell id="igplpGSqUlNDnvpUY9Ta-19" value="Formulario exitoso" style="rounded=1;fillColor=#66E0FF;strokeColor=#0e8088;shadow=1;fontStyle=1;fontSize=14;" vertex="1" parent="1">
          <mxGeometry x="160" y="567.5" width="200" height="60" as="geometry" />
        </mxCell>
        <mxCell id="igplpGSqUlNDnvpUY9Ta-21" style="edgeStyle=none;curved=1;rounded=0;orthogonalLoop=1;jettySize=auto;html=1;exitX=0.5;exitY=1;exitDx=0;exitDy=0;fontSize=12;startSize=8;endSize=8;strokeWidth=4;endArrow=block;startFill=0;endFill=1;strokeColor=#333333;entryX=0.5;entryY=0;entryDx=0;entryDy=0;" edge="1" parent="1" source="igplpGSqUlNDnvpUY9Ta-17" target="igplpGSqUlNDnvpUY9Ta-19">
          <mxGeometry relative="1" as="geometry">
            <mxPoint x="259.23157894736835" y="520" as="targetPoint" />
            <mxPoint x="259.6" y="429" as="sourcePoint" />
          </mxGeometry>
        </mxCell>
      </root>
    </mxGraphModel>
  </diagram>
</mxfile>
